<?xml version="1.0" encoding="utf-8"?>
<!-- Generator: Adobe Illustrator 24.1.3, SVG Export Plug-In . SVG Version: 6.00 Build 0)  -->
<svg version="1.1" id="Layer_1" xmlns="http://www.w3.org/2000/svg" xmlns:xlink="http://www.w3.org/1999/xlink" x="0px" y="0px"
	 viewBox="0 0 24 24" style="enable-background:new 0 0 24 24;" xml:space="preserve">
<style type="text/css">
	.st0{clip-path:url(#SVGID_2_);}
	.st1{fill:#000000;}
</style>
<g>
	<defs>
		<rect id="SVGID_1_" x="-0.5" width="25" height="24"/>
	</defs>
	<clipPath id="SVGID_2_">
		<use xlink:href="#SVGID_1_"  style="overflow:visible;"/>
	</clipPath>
	<g class="st0">
		<path class="st1" d="M21,17.6v-0.2c0-0.1-0.1-0.3-0.1-0.4c0-0.1-0.1-0.3-0.2-0.4c-0.1-0.1-0.1-0.3-0.2-0.4l-5.6-7.9V4.6h1.3
			c0.2,0,0.4-0.1,0.6-0.2C17,4.2,17.1,4,17.1,3.8c0-0.2-0.1-0.4-0.2-0.6C16.7,3.1,16.5,3,16.2,3H7.8C7.5,3,7.3,3.1,7.2,3.2
			C7,3.4,6.9,3.6,6.9,3.8C6.9,4,7,4.2,7.2,4.4c0.2,0.2,0.4,0.2,0.6,0.2h1.3v3.7l-5.6,7.9c-0.1,0.1-0.2,0.3-0.2,0.4
			c-0.1,0.1-0.1,0.3-0.2,0.4C3,17.3,3,17.6,3,17.8c0,0.1,0,0.1,0,0.2c0,0.3,0.1,0.7,0.2,1c0.1,0.3,0.3,0.6,0.5,0.9
			C3.8,20,3.9,20.1,4,20.2c0.1,0.1,0.2,0.2,0.3,0.3l0.4,0.2l0.4,0.2C5.4,20.9,5.8,21,6.2,21h11.7c0.4,0,0.7-0.1,1.1-0.2l0.4-0.2
			c0.4-0.2,0.7-0.5,1-0.8c0.3-0.4,0.5-0.8,0.6-1.2C21,18.4,21,18.2,21,18V17.6L21,17.6z M19.3,18c0,0.1,0,0.1,0,0.2v0.1l-0.1,0.1
			c-0.1,0.2-0.2,0.4-0.4,0.6L18.7,19c0,0-0.1,0.1-0.1,0.1l-0.1,0.1l-0.1,0.1l-0.2,0.1c-0.2,0-0.3,0.1-0.5,0.1H6.4H6.2
			c-0.2,0-0.4-0.1-0.6-0.2L5.4,19c-0.1-0.1-0.1-0.1-0.2-0.2c-0.1-0.1-0.2-0.2-0.3-0.4c0,0,0-0.1,0-0.1c-0.1-0.2-0.1-0.4-0.1-0.6
			c0-0.3,0.1-0.7,0.3-1l5.7-7.9V4.6h2.6v4.3l5.7,7.9c0.1,0.1,0.1,0.2,0.1,0.3c0.1,0.2,0.1,0.4,0.1,0.6C19.3,17.8,19.3,17.9,19.3,18z
			"/>
		<path class="st1" d="M6.2,17.1c-0.1,0.1-0.1,0.2-0.1,0.4c0,0.1,0,0.3,0.1,0.4s0.2,0.2,0.3,0.3c0.1,0.1,0.2,0.1,0.4,0.1h10.3
			c0.1,0,0.3,0,0.4-0.1c0.1-0.1,0.2-0.2,0.3-0.3c0.1-0.1,0.1-0.2,0.1-0.4c0-0.1,0-0.3-0.1-0.4l-3.6-4.9H9.9L6.2,17.1z"/>
	</g>
</g>
</svg>
